<svg xmlns="http://www.w3.org/2000/svg" width="500" height="500" viewBox="0 0 500 500"><defs><style>.a{fill:rgba(255,255,255,0);}.b{fill:#f3ba2f;}</style></defs><rect class="a" width="500" height="500"/><g transform="translate(99.999 100)"><path class="b" d="M130.307,126.059l58.26-58.254,58.3,58.29,33.9-33.9L188.567,0,96.41,92.163Z" transform="translate(-38.57)"/><rect class="b" width="47.941" height="47.941" transform="translate(0.001 149.994) rotate(-45)"/><path class="b" d="M130.275,289.9l58.26,58.26,58.29-58.284,33.921,33.879-.018.018-92.193,92.193L96.378,323.807l-.048-.048Z" transform="translate(-38.538 -115.97)"/><rect class="b" width="47.941" height="47.941" transform="translate(232.202 150.007) rotate(-45)"/><path class="b" d="M261.461,227.055h.012l-34.4-34.395-25.419,25.419h0L198.731,221l-6.023,6.023h0l-.048.048.048.048,34.365,34.371,34.4-34.4.018-.018Z" transform="translate(-77.075 -77.076)"/></g></svg>
